<svg xmlns="http://www.w3.org/2000/svg" width="512" zoomAndPan="magnify"
     viewBox="0 0 384 95.999999" height="128" preserveAspectRatio="xMidYMid meet" version="1.0">
    <defs>
        <g/>
    </defs>
    <g fill="#ff00ff" fill-opacity="1">
        <g transform="translate(17.754186, 73.277028)">
            <g>
                <path d="M 5.121094 0 L 14.078125 0 L 14.078125 -18.558594 L 45.28125 -18.558594 L 45.28125 0 L 54.238281 0 L 54.238281 -46.078125 L 45.28125 -46.078125 L 45.28125 -27.519531 L 14.078125 -27.519531 L 14.078125 -46.078125 L 5.121094 -46.078125 Z M 5.121094 0 "/>
            </g>
        </g>
    </g>
    <g fill="#ff00ff" fill-opacity="1">
        <g transform="translate(77.114154, 73.277028)">
            <g>
                <path d="M 14.078125 0 L 54.078125 0 L 54.078125 -8.960938 L 14.078125 -8.960938 L 14.078125 -18.558594 L 43.679688 -18.558594 L 43.679688 -27.519531 L 14.078125 -27.519531 L 14.078125 -37.121094 L 54.078125 -37.121094 L 54.078125 -46.078125 L 14.078125 -46.078125 L 5.121094 -37.121094 L 5.121094 -8.960938 Z M 14.078125 0 "/>
            </g>
        </g>
    </g>
    <g fill="#ff00ff" fill-opacity="1">
        <g transform="translate(136.314121, 73.277028)">
            <g>
                <path d="M 14.078125 0 L 42.878906 0 L 42.878906 -8.960938 L 14.078125 -8.960938 L 14.078125 -46.078125 L 5.121094 -46.078125 L 5.121094 -8.960938 Z M 14.078125 0 "/>
            </g>
        </g>
    </g>
    <g fill="#ff00ff" fill-opacity="1">
        <g transform="translate(184.3141, 73.277028)">
            <g>
                <path d="M 14.078125 0 L 54.078125 0 L 54.078125 -8.960938 L 14.078125 -8.960938 L 14.078125 -18.558594 L 43.679688 -18.558594 L 43.679688 -27.519531 L 14.078125 -27.519531 L 14.078125 -37.121094 L 54.078125 -37.121094 L 54.078125 -46.078125 L 14.078125 -46.078125 L 5.121094 -37.121094 L 5.121094 -8.960938 Z M 14.078125 0 "/>
            </g>
        </g>
    </g>
    <g fill="#ff00ff" fill-opacity="1">
        <g transform="translate(243.514067, 73.277028)">
            <g>
                <path d="M 5.121094 0 L 14.078125 0 L 14.078125 -37.121094 L 45.28125 -37.121094 L 45.28125 0 L 54.238281 0 L 54.238281 -37.121094 L 45.28125 -46.078125 L 14.078125 -46.078125 L 5.121094 -37.121094 Z M 5.121094 0 "/>
            </g>
        </g>
    </g>
    <g fill="#ff00ff" fill-opacity="1">
        <g transform="translate(302.874036, 73.277028)">
            <g>
                <path d="M 14.078125 0 L 54.078125 0 L 54.078125 -8.960938 L 14.078125 -8.960938 L 14.078125 -18.558594 L 43.679688 -18.558594 L 43.679688 -27.519531 L 14.078125 -27.519531 L 14.078125 -37.121094 L 54.078125 -37.121094 L 54.078125 -46.078125 L 14.078125 -46.078125 L 5.121094 -37.121094 L 5.121094 -8.960938 Z M 14.078125 0 "/>
            </g>
        </g>
    </g>
    <g fill="#00ffff" fill-opacity="1">
        <g transform="translate(21.9229, 69.389637)">
            <g>
                <path d="M 5.121094 0 L 14.078125 0 L 14.078125 -18.558594 L 45.28125 -18.558594 L 45.28125 0 L 54.238281 0 L 54.238281 -46.078125 L 45.28125 -46.078125 L 45.28125 -27.519531 L 14.078125 -27.519531 L 14.078125 -46.078125 L 5.121094 -46.078125 Z M 5.121094 0 "/>
            </g>
        </g>
    </g>
    <g fill="#00ffff" fill-opacity="1">
        <g transform="translate(81.282868, 69.389637)">
            <g>
                <path d="M 14.078125 0 L 54.078125 0 L 54.078125 -8.960938 L 14.078125 -8.960938 L 14.078125 -18.558594 L 43.679688 -18.558594 L 43.679688 -27.519531 L 14.078125 -27.519531 L 14.078125 -37.121094 L 54.078125 -37.121094 L 54.078125 -46.078125 L 14.078125 -46.078125 L 5.121094 -37.121094 L 5.121094 -8.960938 Z M 14.078125 0 "/>
            </g>
        </g>
    </g>
    <g fill="#00ffff" fill-opacity="1">
        <g transform="translate(140.482836, 69.389637)">
            <g>
                <path d="M 14.078125 0 L 42.878906 0 L 42.878906 -8.960938 L 14.078125 -8.960938 L 14.078125 -46.078125 L 5.121094 -46.078125 L 5.121094 -8.960938 Z M 14.078125 0 "/>
            </g>
        </g>
    </g>
    <g fill="#00ffff" fill-opacity="1">
        <g transform="translate(188.482814, 69.389637)">
            <g>
                <path d="M 14.078125 0 L 54.078125 0 L 54.078125 -8.960938 L 14.078125 -8.960938 L 14.078125 -18.558594 L 43.679688 -18.558594 L 43.679688 -27.519531 L 14.078125 -27.519531 L 14.078125 -37.121094 L 54.078125 -37.121094 L 54.078125 -46.078125 L 14.078125 -46.078125 L 5.121094 -37.121094 L 5.121094 -8.960938 Z M 14.078125 0 "/>
            </g>
        </g>
    </g>
    <g fill="#00ffff" fill-opacity="1">
        <g transform="translate(247.682782, 69.389637)">
            <g>
                <path d="M 5.121094 0 L 14.078125 0 L 14.078125 -37.121094 L 45.28125 -37.121094 L 45.28125 0 L 54.238281 0 L 54.238281 -37.121094 L 45.28125 -46.078125 L 14.078125 -46.078125 L 5.121094 -37.121094 Z M 5.121094 0 "/>
            </g>
        </g>
    </g>
    <g fill="#00ffff" fill-opacity="1">
        <g transform="translate(307.04275, 69.389637)">
            <g>
                <path d="M 14.078125 0 L 54.078125 0 L 54.078125 -8.960938 L 14.078125 -8.960938 L 14.078125 -18.558594 L 43.679688 -18.558594 L 43.679688 -27.519531 L 14.078125 -27.519531 L 14.078125 -37.121094 L 54.078125 -37.121094 L 54.078125 -46.078125 L 14.078125 -46.078125 L 5.121094 -37.121094 L 5.121094 -8.960938 Z M 14.078125 0 "/>
            </g>
        </g>
    </g>
    <g fill="#5e17eb" fill-opacity="1">
        <g transform="translate(19.838543, 71.333333)">
            <g>
                <path d="M 5.121094 0 L 14.078125 0 L 14.078125 -18.558594 L 45.28125 -18.558594 L 45.28125 0 L 54.238281 0 L 54.238281 -46.078125 L 45.28125 -46.078125 L 45.28125 -27.519531 L 14.078125 -27.519531 L 14.078125 -46.078125 L 5.121094 -46.078125 Z M 5.121094 0 "/>
            </g>
        </g>
    </g>
    <g fill="#5e17eb" fill-opacity="1">
        <g transform="translate(79.198511, 71.333333)">
            <g>
                <path d="M 14.078125 0 L 54.078125 0 L 54.078125 -8.960938 L 14.078125 -8.960938 L 14.078125 -18.558594 L 43.679688 -18.558594 L 43.679688 -27.519531 L 14.078125 -27.519531 L 14.078125 -37.121094 L 54.078125 -37.121094 L 54.078125 -46.078125 L 14.078125 -46.078125 L 5.121094 -37.121094 L 5.121094 -8.960938 Z M 14.078125 0 "/>
            </g>
        </g>
    </g>
    <g fill="#5e17eb" fill-opacity="1">
        <g transform="translate(138.398478, 71.333333)">
            <g>
                <path d="M 14.078125 0 L 42.878906 0 L 42.878906 -8.960938 L 14.078125 -8.960938 L 14.078125 -46.078125 L 5.121094 -46.078125 L 5.121094 -8.960938 Z M 14.078125 0 "/>
            </g>
        </g>
    </g>
    <g fill="#5e17eb" fill-opacity="1">
        <g transform="translate(186.398457, 71.333333)">
            <g>
                <path d="M 14.078125 0 L 54.078125 0 L 54.078125 -8.960938 L 14.078125 -8.960938 L 14.078125 -18.558594 L 43.679688 -18.558594 L 43.679688 -27.519531 L 14.078125 -27.519531 L 14.078125 -37.121094 L 54.078125 -37.121094 L 54.078125 -46.078125 L 14.078125 -46.078125 L 5.121094 -37.121094 L 5.121094 -8.960938 Z M 14.078125 0 "/>
            </g>
        </g>
    </g>
    <g fill="#5e17eb" fill-opacity="1">
        <g transform="translate(245.598424, 71.333333)">
            <g>
                <path d="M 5.121094 0 L 14.078125 0 L 14.078125 -37.121094 L 45.28125 -37.121094 L 45.28125 0 L 54.238281 0 L 54.238281 -37.121094 L 45.28125 -46.078125 L 14.078125 -46.078125 L 5.121094 -37.121094 Z M 5.121094 0 "/>
            </g>
        </g>
    </g>
    <g fill="#5e17eb" fill-opacity="1">
        <g transform="translate(304.958393, 71.333333)">
            <g>
                <path d="M 14.078125 0 L 54.078125 0 L 54.078125 -8.960938 L 14.078125 -8.960938 L 14.078125 -18.558594 L 43.679688 -18.558594 L 43.679688 -27.519531 L 14.078125 -27.519531 L 14.078125 -37.121094 L 54.078125 -37.121094 L 54.078125 -46.078125 L 14.078125 -46.078125 L 5.121094 -37.121094 L 5.121094 -8.960938 Z M 14.078125 0 "/>
            </g>
        </g>
    </g>
</svg>