<svg
        xmlns="http://www.w3.org/2000/svg"
        width="133px" height="22px">
    <path fill-rule="evenodd" fill="rgb(106, 90, 205)"
          d="M117.745,18.270 L132.790,18.270 L132.790,21.120 L117.745,21.120 C114.435,21.120 111.757,18.420 111.757,15.150 L111.757,10.591 C111.757,7.321 114.435,4.651 117.745,4.651 L132.790,4.651 L132.790,7.471 L117.745,7.471 C115.1000,7.471 114.616,8.881 114.616,10.591 L114.616,11.461 L132.790,11.461 L132.790,14.310 L114.616,14.310 L114.616,15.150 C114.616,16.860 115.1000,18.270 117.745,18.270 ZM105.920,10.591 C105.920,8.881 104.505,7.471 102.820,7.471 L90.574,7.471 L90.574,21.120 L87.746,21.120 L87.746,4.651 L102.820,4.651 C106.070,4.651 108.748,7.321 108.748,10.591 L108.748,21.120 L105.920,21.120 L105.920,10.591 ZM63.704,15.150 L63.704,10.591 C63.704,7.321 66.382,4.651 69.692,4.651 L84.737,4.651 L84.737,7.471 L69.692,7.471 C67.947,7.471 66.563,8.881 66.563,10.591 L66.563,11.461 L84.737,11.461 L84.737,14.310 L66.563,14.310 L66.563,15.150 C66.563,16.860 67.947,18.270 69.692,18.270 L84.737,18.270 L84.737,21.120 L69.692,21.120 C66.382,21.120 63.704,18.420 63.704,15.150 ZM57.867,0.121 L60.695,0.121 L60.695,21.120 L57.867,21.120 L57.867,0.121 ZM33.826,15.150 L33.826,10.591 C33.826,7.321 36.503,4.651 39.813,4.651 L54.858,4.651 L54.858,7.471 L39.813,7.471 C38.068,7.471 36.684,8.881 36.684,10.591 L36.684,11.461 L54.858,11.461 L54.858,14.310 L36.684,14.310 L36.684,15.150 C36.684,16.860 38.068,18.270 39.813,18.270 L54.858,18.270 L54.858,21.120 L39.813,21.120 C36.503,21.120 33.826,18.420 33.826,15.150 ZM27.987,12.061 L3.555,12.061 L3.555,21.120 L0.727,21.120 L0.727,0.121 L3.555,0.121 L3.555,9.211 L27.987,9.211 L27.987,0.121 L30.816,0.121 L30.816,21.120 L27.987,21.120 L27.987,12.061 Z"/>
</svg>
